<?xml version="1.0" encoding="utf-8" standalone="no"?>
<!DOCTYPE svg PUBLIC "-//W3C//DTD SVG 1.1//EN"
  "http://www.w3.org/Graphics/SVG/1.1/DTD/svg11.dtd">
<!-- Created with matplotlib (https://matplotlib.org/) -->
<svg height="773.060625pt" version="1.1" viewBox="0 0 955.175 773.060625" width="955.175pt" xmlns="http://www.w3.org/2000/svg" xmlns:xlink="http://www.w3.org/1999/xlink">
 <metadata>
  <rdf:RDF xmlns:cc="http://creativecommons.org/ns#" xmlns:dc="http://purl.org/dc/elements/1.1/" xmlns:rdf="http://www.w3.org/1999/02/22-rdf-syntax-ns#">
   <cc:Work>
    <dc:type rdf:resource="http://purl.org/dc/dcmitype/StillImage"/>
    <dc:date>2021-07-01T15:15:30.551499</dc:date>
    <dc:format>image/svg+xml</dc:format>
    <dc:creator>
     <cc:Agent>
      <dc:title>Matplotlib v3.3.4, https://matplotlib.org/</dc:title>
     </cc:Agent>
    </dc:creator>
   </cc:Work>
  </rdf:RDF>
 </metadata>
 <defs>
  <style type="text/css">*{stroke-linecap:butt;stroke-linejoin:round;}</style>
 </defs>
 <g id="figure_1">
  <g id="patch_1">
   <path d="M 0 773.060625 
L 955.175 773.060625 
L 955.175 0 
L 0 0 
z
" style="fill:none;"/>
  </g>
  <g id="axes_1">
   <g id="patch_2">
    <path d="M 110.975 684.298125 
L 947.975 684.298125 
L 947.975 31.978125 
L 110.975 31.978125 
z
" style="fill:none;"/>
   </g>
   <g id="matplotlib.axis_1">
    <g id="xtick_1">
     <g id="line2d_1">
      <path clip-path="url(#pab14624c0a)" d="M 207.551923 684.298125 
L 207.551923 31.978125 
" style="fill:none;stroke:#b0b0b0;stroke-linecap:square;stroke-width:0.8;"/>
     </g>
     <g id="line2d_2">
      <defs>
       <path d="M 0 0 
L 0 3.5 
" id="m74ef42552a" style="stroke:#000000;stroke-width:0.8;"/>
      </defs>
      <g>
       <use style="stroke:#000000;stroke-width:0.8;" x="207.551923" xlink:href="#m74ef42552a" y="684.298125"/>
      </g>
     </g>
     <g id="text_1">
      <!-- −30 -->
      <g transform="translate(181.151923 713.07625)scale(0.3 -0.3)">
       <defs>
        <path d="M 8 22 
L 68 22 
C 67.796875 23 67.703125 24 67.703125 25 
C 67.703125 26 67.796875 27 68 28 
L 8 28 
C 8.203125 27 8.296875 26 8.296875 25 
C 8.296875 24 8.203125 23 8 22 
z
" id="TeXGyrePagella-Regular-8722"/>
        <path d="M 1.5 15.296875 
C 3.59375 9.203125 4.40625 5.59375 5 0.59375 
C 10.296875 -1.203125 14.703125 -2 18.40625 -2 
C 26.40625 -2 35.59375 2.5 41.09375 9.203125 
C 44.5 13.296875 46.203125 17.703125 46.203125 22.40625 
C 46.203125 27.203125 44.203125 31.40625 40.59375 33.90625 
C 38.09375 35.703125 35.796875 36.5 30.796875 37.40625 
C 38.796875 43.59375 41.796875 48.203125 41.796875 54.09375 
C 41.796875 63 34.40625 68.90625 23.296875 68.90625 
C 16.5 68.90625 12 67 7.203125 62.203125 
L 4.296875 49.796875 
L 7.40625 49.796875 
L 9.203125 55.40625 
C 10.296875 58.796875 16.59375 62.203125 21.796875 62.203125 
C 28.296875 62.203125 33.59375 56.90625 33.59375 50.59375 
C 33.59375 43.09375 27.703125 36.796875 20.59375 36.796875 
C 19.796875 36.796875 15.90625 37.09375 15.90625 37.09375 
L 14.703125 31.796875 
L 15.40625 31.203125 
C 19.203125 32.90625 21.09375 33.40625 23.796875 33.40625 
C 32.09375 33.40625 36.90625 28.09375 36.90625 19 
C 36.90625 8.796875 30.796875 2.09375 21.5 2.09375 
C 16.90625 2.09375 12.796875 3.59375 9.796875 6.40625 
C 7.40625 8.59375 6.09375 10.90625 4.203125 16.296875 
z
" id="TeXGyrePagella-Regular-51"/>
        <path d="M 2.90625 32.40625 
C 2.90625 20.703125 5 10.59375 8.5 5.703125 
C 12 0.796875 17.59375 -2 23.796875 -2 
C 38.90625 -2 46.5 11 46.5 36.59375 
C 46.5 58.5 40 68.90625 26.296875 68.90625 
C 10.796875 68.90625 2.90625 56.59375 2.90625 32.40625 
z
M 11.296875 36 
C 11.296875 57.09375 15 65.40625 24.5 65.40625 
C 34.203125 65.40625 38.09375 55.59375 38.09375 31.59375 
C 38.09375 10.296875 34.296875 1.5 25.09375 1.5 
C 15.40625 1.5 11.296875 11.59375 11.296875 36 
z
" id="TeXGyrePagella-Regular-48"/>
       </defs>
       <use xlink:href="#TeXGyrePagella-Regular-8722"/>
       <use x="75.999985" xlink:href="#TeXGyrePagella-Regular-51"/>
       <use x="125.999969" xlink:href="#TeXGyrePagella-Regular-48"/>
      </g>
     </g>
    </g>
    <g id="xtick_2">
     <g id="line2d_3">
      <path clip-path="url(#pab14624c0a)" d="M 324.61486 684.298125 
L 324.61486 31.978125 
" style="fill:none;stroke:#b0b0b0;stroke-linecap:square;stroke-width:0.8;"/>
     </g>
     <g id="line2d_4">
      <g>
       <use style="stroke:#000000;stroke-width:0.8;" x="324.61486" xlink:href="#m74ef42552a" y="684.298125"/>
      </g>
     </g>
     <g id="text_2">
      <!-- −20 -->
      <g transform="translate(298.21486 713.07625)scale(0.3 -0.3)">
       <defs>
        <path d="M 1.59375 -0.296875 
C 9 -0.09375 16.5 0 23.90625 0 
C 31.5 0 39.203125 -0.09375 46.796875 -0.296875 
C 46.59375 1.796875 46.59375 2.796875 46.59375 4.203125 
C 46.59375 5.5 46.59375 6.5 46.796875 8.703125 
L 12.203125 7.703125 
L 30.40625 27 
C 40.09375 37.296875 43.09375 42.796875 43.09375 50.296875 
C 43.09375 61.796875 35.296875 68.90625 22.59375 68.90625 
C 15.40625 68.90625 10.5 66.90625 5.59375 61.90625 
L 3.90625 48.296875 
L 6.796875 48.296875 
L 8.09375 52.90625 
C 9.703125 58.703125 13.296875 61.203125 20 61.203125 
C 28.59375 61.203125 34.09375 55.796875 34.09375 47.296875 
C 34.09375 39.796875 29.90625 32.40625 18.59375 20.40625 
L 1.59375 2.296875 
z
" id="TeXGyrePagella-Regular-50"/>
       </defs>
       <use xlink:href="#TeXGyrePagella-Regular-8722"/>
       <use x="75.999985" xlink:href="#TeXGyrePagella-Regular-50"/>
       <use x="125.999969" xlink:href="#TeXGyrePagella-Regular-48"/>
      </g>
     </g>
    </g>
    <g id="xtick_3">
     <g id="line2d_5">
      <path clip-path="url(#pab14624c0a)" d="M 441.677797 684.298125 
L 441.677797 31.978125 
" style="fill:none;stroke:#b0b0b0;stroke-linecap:square;stroke-width:0.8;"/>
     </g>
     <g id="line2d_6">
      <g>
       <use style="stroke:#000000;stroke-width:0.8;" x="441.677797" xlink:href="#m74ef42552a" y="684.298125"/>
      </g>
     </g>
     <g id="text_3">
      <!-- −10 -->
      <g transform="translate(415.277797 713.07625)scale(0.3 -0.3)">
       <defs>
        <path d="M 6 59.796875 
L 6.703125 55.5 
L 7.703125 55.5 
L 20.59375 61.296875 
L 20.90625 61.40625 
C 21.5 61.40625 21.703125 60.5 21.703125 58.09375 
L 21.703125 9.59375 
C 21.703125 4.40625 20.59375 3.296875 15.203125 3 
L 9.59375 2.703125 
L 9.59375 -0.296875 
C 15.09375 -0.09375 20.59375 0 26.09375 0 
C 31.296875 0 36.59375 -0.09375 41.796875 -0.296875 
L 41.796875 2.703125 
L 36.59375 3 
C 31.09375 3.296875 30.09375 4.40625 30.09375 9.59375 
L 30.09375 68.90625 
L 28.703125 69.40625 
C 22.203125 66 15.09375 63 6 59.796875 
z
" id="TeXGyrePagella-Regular-49"/>
       </defs>
       <use xlink:href="#TeXGyrePagella-Regular-8722"/>
       <use x="75.999985" xlink:href="#TeXGyrePagella-Regular-49"/>
       <use x="125.999969" xlink:href="#TeXGyrePagella-Regular-48"/>
      </g>
     </g>
    </g>
    <g id="xtick_4">
     <g id="line2d_7">
      <path clip-path="url(#pab14624c0a)" d="M 558.740734 684.298125 
L 558.740734 31.978125 
" style="fill:none;stroke:#b0b0b0;stroke-linecap:square;stroke-width:0.8;"/>
     </g>
     <g id="line2d_8">
      <g>
       <use style="stroke:#000000;stroke-width:0.8;" x="558.740734" xlink:href="#m74ef42552a" y="684.298125"/>
      </g>
     </g>
     <g id="text_4">
      <!-- 0 -->
      <g transform="translate(551.240734 713.07625)scale(0.3 -0.3)">
       <use xlink:href="#TeXGyrePagella-Regular-48"/>
      </g>
     </g>
    </g>
    <g id="xtick_5">
     <g id="line2d_9">
      <path clip-path="url(#pab14624c0a)" d="M 675.803671 684.298125 
L 675.803671 31.978125 
" style="fill:none;stroke:#b0b0b0;stroke-linecap:square;stroke-width:0.8;"/>
     </g>
     <g id="line2d_10">
      <g>
       <use style="stroke:#000000;stroke-width:0.8;" x="675.803671" xlink:href="#m74ef42552a" y="684.298125"/>
      </g>
     </g>
     <g id="text_5">
      <!-- 10 -->
      <g transform="translate(660.803671 713.07625)scale(0.3 -0.3)">
       <use xlink:href="#TeXGyrePagella-Regular-49"/>
       <use x="49.999985" xlink:href="#TeXGyrePagella-Regular-48"/>
      </g>
     </g>
    </g>
    <g id="xtick_6">
     <g id="line2d_11">
      <path clip-path="url(#pab14624c0a)" d="M 792.866608 684.298125 
L 792.866608 31.978125 
" style="fill:none;stroke:#b0b0b0;stroke-linecap:square;stroke-width:0.8;"/>
     </g>
     <g id="line2d_12">
      <g>
       <use style="stroke:#000000;stroke-width:0.8;" x="792.866608" xlink:href="#m74ef42552a" y="684.298125"/>
      </g>
     </g>
     <g id="text_6">
      <!-- 20 -->
      <g transform="translate(777.866608 713.07625)scale(0.3 -0.3)">
       <use xlink:href="#TeXGyrePagella-Regular-50"/>
       <use x="49.999985" xlink:href="#TeXGyrePagella-Regular-48"/>
      </g>
     </g>
    </g>
    <g id="xtick_7">
     <g id="line2d_13">
      <path clip-path="url(#pab14624c0a)" d="M 909.929545 684.298125 
L 909.929545 31.978125 
" style="fill:none;stroke:#b0b0b0;stroke-linecap:square;stroke-width:0.8;"/>
     </g>
     <g id="line2d_14">
      <g>
       <use style="stroke:#000000;stroke-width:0.8;" x="909.929545" xlink:href="#m74ef42552a" y="684.298125"/>
      </g>
     </g>
     <g id="text_7">
      <!-- 30 -->
      <g transform="translate(894.929545 713.07625)scale(0.3 -0.3)">
       <use xlink:href="#TeXGyrePagella-Regular-51"/>
       <use x="49.999985" xlink:href="#TeXGyrePagella-Regular-48"/>
      </g>
     </g>
    </g>
    <g id="text_8">
     <!-- Physical Observable -->
     <g transform="translate(350.2125 754.541875)scale(0.4 -0.4)">
      <defs>
       <path d="M 2.203125 -0.296875 
C 7.09375 -0.09375 11.90625 0 16.796875 0 
C 21.703125 0 26.59375 -0.09375 31.5 -0.296875 
L 31.5 2.703125 
L 26.703125 3 
C 22.09375 3.296875 21.59375 4.09375 21.59375 12 
L 21.59375 64.203125 
C 25.09375 65 28 65.40625 31.40625 65.40625 
C 42.203125 65.40625 48 60.40625 48 50.90625 
C 48 41.90625 41.90625 35.59375 33.203125 35.59375 
C 31.09375 35.59375 29.59375 35.796875 27 36.59375 
L 28 33 
C 30.40625 32.5 31.796875 32.40625 33.796875 32.40625 
C 47.5 32.40625 58 41.703125 58 53.703125 
C 58 63.296875 50.203125 69.203125 37.5 69.203125 
C 31.796875 69.203125 26.203125 68.90625 20.5 68.90625 
C 14.40625 68.90625 8.40625 69 2.296875 69.203125 
L 2.296875 66.203125 
L 6.796875 65.90625 
C 11.296875 65.59375 12.09375 64.296875 12.09375 56.90625 
L 12.09375 12 
C 12.09375 4.09375 11.59375 3.296875 7 3 
L 2.203125 2.703125 
z
" id="TeXGyrePagella-Regular-80"/>
       <path d="M 0.59375 -0.296875 
C 4.703125 -0.09375 8.90625 0 13 0 
C 17.09375 0 21.296875 -0.09375 25.40625 -0.296875 
L 25.40625 2.703125 
L 20.90625 3 
C 17.5 3.203125 17.203125 3.90625 17.203125 10.203125 
L 17.203125 31.40625 
C 17.203125 35.90625 23.796875 40.796875 29.90625 40.796875 
C 36.59375 40.796875 41 35.796875 41 28.09375 
L 41 -0.296875 
C 43.59375 -0.09375 46.296875 0 48.90625 0 
C 51.703125 0 54.40625 -0.09375 57.203125 -0.296875 
L 57.203125 2.703125 
L 53.09375 3 
C 49.703125 3.203125 49.40625 3.796875 49.40625 10.203125 
L 49.40625 29.5 
C 49.40625 41.203125 43.90625 46.90625 32.703125 46.90625 
C 29 46.90625 26.90625 46.203125 24.796875 44.40625 
L 17.203125 37.796875 
L 17.203125 71.796875 
L 16.296875 72.59375 
C 11.90625 70.90625 8.59375 70.09375 0.703125 68.90625 
L 0.703125 66.09375 
L 6.296875 66.09375 
C 8.09375 66.09375 8.796875 65 8.796875 62 
L 8.796875 10.203125 
C 8.796875 3.90625 8.5 3.203125 5.09375 3 
L 0.59375 2.703125 
z
" id="TeXGyrePagella-Regular-104"/>
       <path d="M 1.203125 43.09375 
L 3 42.90625 
C 5.5 42.59375 6.796875 41.5 8.203125 38 
L 24.703125 -2.40625 
L 22.40625 -8.5 
C 19.203125 -16.90625 15.296875 -21.59375 11.5 -21.59375 
C 9.90625 -21.59375 8.09375 -20.796875 6.40625 -19.296875 
L 5.09375 -19.296875 
L 2.703125 -26.796875 
C 4.59375 -27.796875 6.203125 -28.296875 8.09375 -28.296875 
C 14.796875 -28.296875 19.09375 -24.703125 22.90625 -16 
L 43.203125 30.796875 
C 47.203125 39.90625 49.09375 42.703125 51.59375 42.90625 
L 54.40625 43.09375 
L 54.40625 45.90625 
C 51.203125 45.703125 48.09375 45.59375 44.90625 45.59375 
C 41.703125 45.59375 38.59375 45.703125 35.40625 45.90625 
L 35.40625 43.09375 
L 38 42.90625 
C 42.203125 42.59375 43.09375 41.40625 41.59375 37.796875 
L 29.703125 8.59375 
C 27.5 12.40625 26.5 14.703125 24.59375 19.59375 
L 18.203125 36.40625 
C 16.5 40.796875 16.703125 42.703125 20.59375 42.90625 
L 24.40625 43.09375 
L 24.40625 45.90625 
C 20.5 45.703125 16.703125 45.59375 12.796875 45.59375 
C 8.90625 45.59375 5.09375 45.703125 1.203125 45.90625 
z
" id="TeXGyrePagella-Regular-121"/>
       <path d="M 3 0.40625 
C 8.203125 -1.296875 12.09375 -2 16.703125 -2 
C 29.796875 -2 39.09375 5 39.09375 14.796875 
C 39.09375 17.90625 38.296875 20.203125 36.296875 22.203125 
C 33.703125 24.796875 30.40625 25.90625 21.59375 27.59375 
C 13.40625 29.203125 10.703125 31.203125 10.703125 35.796875 
C 10.703125 40.796875 14.203125 43.59375 20.296875 43.59375 
C 27 43.59375 32.09375 40.09375 32.09375 35.40625 
L 32.09375 33.09375 
L 34.90625 33.09375 
C 35 38.90625 35.09375 41.296875 35.40625 44.40625 
C 30.09375 46.203125 26.5 46.90625 22.40625 46.90625 
C 10.796875 46.90625 3.703125 41.40625 3.703125 32.40625 
C 3.703125 27.59375 5.90625 24.203125 10.5 22.09375 
C 13.203125 20.90625 18.5 19.296875 25.296875 17.796875 
C 29.796875 16.796875 31.703125 14.703125 31.703125 10.90625 
C 31.703125 5.5 26.703125 1.703125 19.59375 1.703125 
C 12.296875 1.703125 7.09375 5.203125 7.09375 10.203125 
L 7.09375 14.296875 
L 4.09375 14.296875 
C 4.09375 7.40625 3.796875 4.40625 3 0.40625 
z
" id="TeXGyrePagella-Regular-115"/>
       <path d="M 2.09375 -0.296875 
C 6.296875 -0.09375 10.40625 0 14.59375 0 
C 18.796875 0 22.90625 -0.09375 27.09375 -0.296875 
L 27.09375 2.703125 
L 22.5 3 
C 19.09375 3.203125 18.796875 3.90625 18.796875 10.203125 
L 18.796875 46.5 
L 17.90625 46.90625 
C 12.796875 44.796875 7.59375 43.40625 2.296875 42.796875 
L 2.296875 40 
L 6 40 
C 10 40 10.40625 39.296875 10.40625 32.703125 
L 10.40625 10.203125 
C 10.40625 3.90625 10.09375 3.203125 6.703125 3 
L 2.09375 2.703125 
z
M 9.59375 59.203125 
C 9.59375 56.203125 11.59375 54.203125 14.59375 54.203125 
C 17.59375 54.203125 19.59375 56.203125 19.59375 59.203125 
C 19.59375 62.09375 17.59375 64.203125 14.703125 64.203125 
C 11.59375 64.203125 9.59375 62.203125 9.59375 59.203125 
z
" id="TeXGyrePagella-Regular-105"/>
       <path d="M 2.59375 21 
C 2.59375 7.5 12.09375 -2 25.5 -2 
C 30.703125 -2 38.203125 -0.09375 39.203125 1.40625 
L 41.296875 4.59375 
L 40.296875 6.09375 
C 36.59375 4.09375 33.40625 3.203125 29.796875 3.203125 
C 18.703125 3.203125 11.40625 11.796875 11.40625 25 
C 11.40625 35.703125 16.40625 41.703125 25.40625 41.703125 
C 29.796875 41.703125 34.59375 39.703125 36.40625 37.203125 
L 37.09375 31.09375 
L 39.90625 31.09375 
C 39.90625 35.703125 40.40625 39.796875 41.296875 43.40625 
C 37.296875 45.796875 33.796875 46.90625 29.703125 46.90625 
C 24.90625 46.90625 19.296875 45 13.296875 41.203125 
C 6.296875 36.796875 2.59375 29.796875 2.59375 21 
z
" id="TeXGyrePagella-Regular-99"/>
       <path d="M 3.203125 11.09375 
C 3.203125 3.296875 7.90625 -1.203125 15.796875 -1.203125 
C 17.59375 -1.203125 19.296875 -0.90625 20 -0.40625 
L 32.40625 8.203125 
L 31.90625 -0.296875 
C 34.5 -0.09375 37.09375 0 39.703125 0 
C 42.203125 0 44.59375 -0.09375 47.09375 -0.296875 
L 47.09375 2.703125 
L 43.203125 2.90625 
C 40.796875 3 40.40625 3.796875 40.40625 8.703125 
L 40.40625 27 
C 40.40625 41.59375 36.203125 46.90625 24.59375 46.90625 
C 20.296875 46.90625 16.296875 45.796875 12.5 43.5 
L 7.203125 40.296875 
L 7.203125 33.796875 
L 9.796875 33.09375 
L 11.09375 36.203125 
C 13.09375 40.90625 14.203125 41.59375 18.796875 41.59375 
C 28.203125 41.59375 32.09375 37.90625 32.40625 28.796875 
L 22.5 27 
C 8.90625 24.5 3.203125 19.796875 3.203125 11.09375 
z
M 11.796875 12.5 
C 11.796875 16.203125 13.796875 19.703125 16.796875 21.59375 
C 19.296875 23.09375 24.796875 24.5 32.40625 25.59375 
L 32.40625 12.40625 
C 29.5 8.296875 23.203125 4.5 19.296875 4.5 
C 15.296875 4.5 11.796875 8.203125 11.796875 12.5 
z
" id="TeXGyrePagella-Regular-97"/>
       <path d="M 2.09375 -0.296875 
C 6.296875 -0.09375 10.40625 0 14.59375 0 
C 18.796875 0 22.90625 -0.09375 27.09375 -0.296875 
L 27.09375 2.703125 
L 22.5 3 
C 19.09375 3.203125 18.796875 3.90625 18.796875 10.203125 
L 18.796875 71.796875 
L 17.90625 72.59375 
C 13.5 70.90625 10.203125 70.09375 2.296875 68.90625 
L 2.296875 66.09375 
L 7.90625 66.09375 
C 9.703125 66.09375 10.40625 65 10.40625 62 
L 10.40625 10.203125 
C 10.40625 3.90625 10.09375 3.203125 6.703125 3 
L 2.09375 2.703125 
z
" id="TeXGyrePagella-Regular-108"/>
       <path id="TeXGyrePagella-Regular-32"/>
       <path d="M 2.203125 34.09375 
C 2.203125 13.09375 16.796875 -2 37 -2 
C 59.40625 -2 76.40625 14.703125 76.40625 36.703125 
C 76.40625 57.703125 62.40625 70.90625 40.203125 70.90625 
C 17.40625 70.90625 2.203125 56.09375 2.203125 34.09375 
z
M 12.90625 37.796875 
C 12.90625 56.296875 22.09375 66.703125 38.5 66.703125 
C 55.59375 66.703125 65.703125 54.5 65.703125 33.703125 
C 65.703125 13.90625 56.5 2.203125 41 2.203125 
C 24.203125 2.203125 12.90625 16.40625 12.90625 37.796875 
z
" id="TeXGyrePagella-Regular-79"/>
       <path d="M -1.5 66.09375 
L 4.09375 66.09375 
C 5.90625 66.09375 6.59375 65 6.59375 62 
L 6.59375 15.296875 
C 6.59375 9.09375 6.5 6.40625 5.796875 -0.59375 
L 7.40625 -1.203125 
L 11.40625 2.40625 
C 15.40625 -0.203125 19 -1.203125 24.296875 -1.203125 
C 28.203125 -1.203125 30.796875 -0.5 32.90625 1 
L 42.90625 8.203125 
C 47.296875 11.40625 50.796875 19.703125 50.796875 27 
C 50.796875 38.59375 43.296875 46.90625 32.703125 46.90625 
C 28 46.90625 23.09375 45.09375 20.5 42.5 
L 15 36.90625 
L 15 71.796875 
L 14.09375 72.59375 
C 9.703125 70.90625 6.40625 70.09375 -1.5 68.90625 
z
M 15 9.296875 
L 15 30.796875 
C 15 32.203125 16 34 17.59375 35.796875 
C 20.40625 38.703125 24.296875 40.40625 28.40625 40.40625 
C 36.796875 40.40625 42.09375 33.59375 42.09375 22.90625 
C 42.09375 11.703125 36.09375 3.90625 27.59375 3.90625 
C 22.40625 3.90625 15 7.09375 15 9.296875 
z
" id="TeXGyrePagella-Regular-98"/>
       <path d="M 2.59375 21.90625 
C 2.59375 15.59375 4 10.203125 6.796875 6.40625 
C 10.703125 1.09375 17.5 -2 25 -2 
C 28.703125 -2 32.40625 -1.203125 36.5 0.59375 
C 39.203125 1.703125 41.296875 3 41.703125 3.59375 
L 43.703125 7 
L 42.40625 8 
C 36 4.203125 33.703125 3.296875 29.40625 3.296875 
C 22.90625 3.296875 17.5 6.203125 14.703125 11.09375 
C 12.796875 14.40625 12.09375 17.203125 11.90625 23 
L 26.5 23 
C 33.40625 23 37.703125 23.296875 44.59375 24.40625 
C 44.703125 25.796875 44.796875 26.703125 44.796875 27.90625 
C 44.796875 39.40625 37.40625 46.90625 26.203125 46.90625 
C 22.5 46.90625 18.203125 45.59375 14.09375 43.203125 
C 5.90625 38.5 2.59375 32.296875 2.59375 21.90625 
z
M 12.09375 27 
C 12.09375 31.703125 12.5 33.90625 13.796875 36.5 
C 15.90625 40.90625 20.203125 43.59375 25 43.59375 
C 28.296875 43.59375 30.90625 42.296875 32.703125 39.59375 
C 34.90625 36.296875 35.90625 33.40625 35.90625 26.703125 
L 24.703125 26.40625 
C 20.09375 26.40625 17.5 26.5 12.09375 27 
z
" id="TeXGyrePagella-Regular-101"/>
       <path d="M 2.09375 -0.296875 
C 6.203125 -0.09375 10.296875 0 14.40625 0 
C 19.203125 0 23.90625 -0.09375 28.703125 -0.296875 
L 28.703125 2.703125 
L 23.5 3 
C 19 3.296875 18.796875 3.59375 18.796875 10.203125 
L 18.796875 27.40625 
C 18.796875 33.40625 22.796875 38.40625 27.703125 38.40625 
C 30.703125 38.40625 32.796875 37 34.40625 33.796875 
L 36.5 33.796875 
L 37.40625 45.796875 
C 36.296875 46.5 34.5 46.90625 32.703125 46.90625 
C 29.703125 46.90625 26.5 45.296875 24.40625 42.796875 
L 18.796875 36.203125 
L 18.796875 46.5 
L 17.90625 46.90625 
C 12.796875 44.796875 7.59375 43.40625 2.296875 42.796875 
L 2.296875 40 
L 6 40 
C 10 40 10.40625 39.296875 10.40625 32.703125 
L 10.40625 10.203125 
C 10.40625 3.90625 10.09375 3.203125 6.703125 3 
L 2.09375 2.703125 
z
" id="TeXGyrePagella-Regular-114"/>
       <path d="M 0.59375 43.09375 
L 4 42.90625 
C 5.796875 42.796875 6.09375 41.90625 7.09375 39.59375 
L 24.296875 -0.703125 
L 29.296875 -0.703125 
C 29.90625 2.59375 31.40625 5.703125 33.40625 10.203125 
L 45.203125 36.203125 
C 47.5 41.296875 48.796875 42.796875 50.796875 42.90625 
L 53.90625 43.09375 
L 53.90625 45.90625 
C 50.796875 45.703125 47.59375 45.59375 44.5 45.59375 
C 41.40625 45.59375 38.203125 45.703125 35.09375 45.90625 
L 35.09375 43.09375 
L 39.203125 42.90625 
C 42.40625 42.703125 42.40625 39.796875 39.703125 33 
L 35.5 22.40625 
L 29.296875 8.40625 
L 17.40625 37.203125 
C 16.296875 40 15.796875 42.796875 19 42.90625 
L 23.90625 43.09375 
L 23.90625 45.90625 
C 20 45.703125 16.09375 45.59375 12.203125 45.59375 
C 8.296875 45.59375 4.5 45.703125 0.59375 45.90625 
z
" id="TeXGyrePagella-Regular-118"/>
      </defs>
      <use xlink:href="#TeXGyrePagella-Regular-80"/>
      <use x="60.399994" xlink:href="#TeXGyrePagella-Regular-104"/>
      <use x="118.599991" xlink:href="#TeXGyrePagella-Regular-121"/>
      <use x="174.199982" xlink:href="#TeXGyrePagella-Regular-115"/>
      <use x="216.599976" xlink:href="#TeXGyrePagella-Regular-105"/>
      <use x="245.299973" xlink:href="#TeXGyrePagella-Regular-99"/>
      <use x="289.699966" xlink:href="#TeXGyrePagella-Regular-97"/>
      <use x="339.699951" xlink:href="#TeXGyrePagella-Regular-108"/>
      <use x="368.799942" xlink:href="#TeXGyrePagella-Regular-32"/>
      <use x="393.799927" xlink:href="#TeXGyrePagella-Regular-79"/>
      <use x="472.399918" xlink:href="#TeXGyrePagella-Regular-98"/>
      <use x="527.699905" xlink:href="#TeXGyrePagella-Regular-115"/>
      <use x="570.099899" xlink:href="#TeXGyrePagella-Regular-101"/>
      <use x="617.999893" xlink:href="#TeXGyrePagella-Regular-114"/>
      <use x="657.499878" xlink:href="#TeXGyrePagella-Regular-118"/>
      <use x="713.999863" xlink:href="#TeXGyrePagella-Regular-97"/>
      <use x="763.999847" xlink:href="#TeXGyrePagella-Regular-98"/>
      <use x="819.299835" xlink:href="#TeXGyrePagella-Regular-108"/>
      <use x="848.399826" xlink:href="#TeXGyrePagella-Regular-101"/>
     </g>
    </g>
   </g>
   <g id="matplotlib.axis_2">
    <g id="ytick_1">
     <g id="line2d_15">
      <path clip-path="url(#pab14624c0a)" d="M 110.975 684.298125 
L 947.975 684.298125 
" style="fill:none;stroke:#b0b0b0;stroke-linecap:square;stroke-width:0.8;"/>
     </g>
     <g id="line2d_16">
      <defs>
       <path d="M 0 0 
L -3.5 0 
" id="m8f086c1942" style="stroke:#000000;stroke-width:0.8;"/>
      </defs>
      <g>
       <use style="stroke:#000000;stroke-width:0.8;" x="110.975" xlink:href="#m8f086c1942" y="684.298125"/>
      </g>
     </g>
     <g id="text_9">
      <!-- 0.00 -->
      <g transform="translate(51.475 695.187187)scale(0.3 -0.3)">
       <defs>
        <path d="M 6.703125 5.296875 
C 6.703125 2.296875 9.40625 -0.5 12.296875 -0.5 
C 15.5 -0.5 18.296875 2.203125 18.296875 5.296875 
C 18.296875 8.296875 15.5 11.09375 12.40625 11.09375 
C 9.40625 11.09375 6.703125 8.296875 6.703125 5.296875 
z
" id="TeXGyrePagella-Regular-46"/>
       </defs>
       <use xlink:href="#TeXGyrePagella-Regular-48"/>
       <use x="49.999985" xlink:href="#TeXGyrePagella-Regular-46"/>
       <use x="74.999969" xlink:href="#TeXGyrePagella-Regular-48"/>
       <use x="124.999954" xlink:href="#TeXGyrePagella-Regular-48"/>
      </g>
     </g>
    </g>
    <g id="ytick_2">
     <g id="line2d_17">
      <path clip-path="url(#pab14624c0a)" d="M 110.975 562.552287 
L 947.975 562.552287 
" style="fill:none;stroke:#b0b0b0;stroke-linecap:square;stroke-width:0.8;"/>
     </g>
     <g id="line2d_18">
      <g>
       <use style="stroke:#000000;stroke-width:0.8;" x="110.975" xlink:href="#m8f086c1942" y="562.552287"/>
      </g>
     </g>
     <g id="text_10">
      <!-- 1.00 -->
      <g transform="translate(51.475 573.441349)scale(0.3 -0.3)">
       <use xlink:href="#TeXGyrePagella-Regular-49"/>
       <use x="49.999985" xlink:href="#TeXGyrePagella-Regular-46"/>
       <use x="74.999969" xlink:href="#TeXGyrePagella-Regular-48"/>
       <use x="124.999954" xlink:href="#TeXGyrePagella-Regular-48"/>
      </g>
     </g>
    </g>
    <g id="ytick_3">
     <g id="line2d_19">
      <path clip-path="url(#pab14624c0a)" d="M 110.975 440.806448 
L 947.975 440.806448 
" style="fill:none;stroke:#b0b0b0;stroke-linecap:square;stroke-width:0.8;"/>
     </g>
     <g id="line2d_20">
      <g>
       <use style="stroke:#000000;stroke-width:0.8;" x="110.975" xlink:href="#m8f086c1942" y="440.806448"/>
      </g>
     </g>
     <g id="text_11">
      <!-- 2.00 -->
      <g transform="translate(51.475 451.695511)scale(0.3 -0.3)">
       <use xlink:href="#TeXGyrePagella-Regular-50"/>
       <use x="49.999985" xlink:href="#TeXGyrePagella-Regular-46"/>
       <use x="74.999969" xlink:href="#TeXGyrePagella-Regular-48"/>
       <use x="124.999954" xlink:href="#TeXGyrePagella-Regular-48"/>
      </g>
     </g>
    </g>
    <g id="ytick_4">
     <g id="line2d_21">
      <path clip-path="url(#pab14624c0a)" d="M 110.975 319.06061 
L 947.975 319.06061 
" style="fill:none;stroke:#b0b0b0;stroke-linecap:square;stroke-width:0.8;"/>
     </g>
     <g id="line2d_22">
      <g>
       <use style="stroke:#000000;stroke-width:0.8;" x="110.975" xlink:href="#m8f086c1942" y="319.06061"/>
      </g>
     </g>
     <g id="text_12">
      <!-- 3.00 -->
      <g transform="translate(51.475 329.949672)scale(0.3 -0.3)">
       <use xlink:href="#TeXGyrePagella-Regular-51"/>
       <use x="49.999985" xlink:href="#TeXGyrePagella-Regular-46"/>
       <use x="74.999969" xlink:href="#TeXGyrePagella-Regular-48"/>
       <use x="124.999954" xlink:href="#TeXGyrePagella-Regular-48"/>
      </g>
     </g>
    </g>
    <g id="ytick_5">
     <g id="line2d_23">
      <path clip-path="url(#pab14624c0a)" d="M 110.975 197.314772 
L 947.975 197.314772 
" style="fill:none;stroke:#b0b0b0;stroke-linecap:square;stroke-width:0.8;"/>
     </g>
     <g id="line2d_24">
      <g>
       <use style="stroke:#000000;stroke-width:0.8;" x="110.975" xlink:href="#m8f086c1942" y="197.314772"/>
      </g>
     </g>
     <g id="text_13">
      <!-- 4.00 -->
      <g transform="translate(51.475 208.203834)scale(0.3 -0.3)">
       <defs>
        <path d="M 0.203125 20.40625 
L 1.296875 18.09375 
L 28 18.09375 
L 28 10.59375 
C 28 4.59375 26.90625 3.203125 22 3 
L 15.796875 2.703125 
L 15.796875 -0.296875 
C 21.203125 -0.09375 26.5 0 31.90625 0 
C 37 0 42.09375 -0.09375 47.203125 -0.296875 
L 47.203125 2.703125 
L 42.40625 3 
C 37.5 3.296875 36.40625 4.59375 36.40625 10.59375 
L 36.40625 18.09375 
C 42.296875 18.09375 44.40625 18 47.203125 17.703125 
L 47.203125 24.796875 
C 47.203125 24.796875 42.296875 24.5 39.09375 24.5 
L 36.40625 24.5 
L 36.40625 38.40625 
C 36.40625 56.203125 36.59375 64.796875 37.09375 68.90625 
L 35.90625 69.40625 
L 28.5 66.703125 
z
M 6.5 24.5 
L 28 59.703125 
L 28 24.5 
z
" id="TeXGyrePagella-Regular-52"/>
       </defs>
       <use xlink:href="#TeXGyrePagella-Regular-52"/>
       <use x="49.999985" xlink:href="#TeXGyrePagella-Regular-46"/>
       <use x="74.999969" xlink:href="#TeXGyrePagella-Regular-48"/>
       <use x="124.999954" xlink:href="#TeXGyrePagella-Regular-48"/>
      </g>
     </g>
    </g>
    <g id="ytick_6">
     <g id="line2d_25">
      <path clip-path="url(#pab14624c0a)" d="M 110.975 75.568933 
L 947.975 75.568933 
" style="fill:none;stroke:#b0b0b0;stroke-linecap:square;stroke-width:0.8;"/>
     </g>
     <g id="line2d_26">
      <g>
       <use style="stroke:#000000;stroke-width:0.8;" x="110.975" xlink:href="#m8f086c1942" y="75.568933"/>
      </g>
     </g>
     <g id="text_14">
      <!-- 5.00 -->
      <g transform="translate(51.475 86.457996)scale(0.3 -0.3)">
       <defs>
        <path d="M 1.296875 13.703125 
C 3.59375 8 4.796875 4.796875 6.203125 0.40625 
C 9 -1.09375 13 -2 17.296875 -2 
C 24 -2 31.09375 0.90625 36.59375 5.703125 
C 42.703125 11.09375 45.90625 17.90625 45.90625 25.296875 
C 45.90625 36.59375 37.796875 44.59375 26.40625 44.59375 
C 21.59375 44.59375 18 43.296875 11.796875 39.59375 
L 12.703125 60.5 
L 43.203125 60 
L 43.703125 60.5 
C 43.5 62.296875 43.5 62.90625 43.5 64.40625 
C 43.5 66 43.5 66.59375 43.703125 68.40625 
C 43.703125 68.40625 43.203125 68.90625 43.203125 68.90625 
C 43.203125 68.90625 32.59375 68.40625 25.796875 68.40625 
C 19 68.40625 8.40625 68.90625 8.40625 68.90625 
C 8.40625 68.90625 7.90625 68.40625 7.90625 68.40625 
L 8.09375 54.703125 
C 8.09375 45.90625 7.796875 36.59375 7.5 32.203125 
L 9.5 31.59375 
C 14.203125 36.296875 16.90625 37.703125 21.796875 37.703125 
C 31.40625 37.703125 37.40625 30.90625 37.40625 20.09375 
C 37.40625 9 31 2.5 20.09375 2.5 
C 14.703125 2.5 9.703125 4.296875 8.296875 6.90625 
L 3.703125 15.09375 
z
" id="TeXGyrePagella-Regular-53"/>
       </defs>
       <use xlink:href="#TeXGyrePagella-Regular-53"/>
       <use x="49.999985" xlink:href="#TeXGyrePagella-Regular-46"/>
       <use x="74.999969" xlink:href="#TeXGyrePagella-Regular-48"/>
       <use x="124.999954" xlink:href="#TeXGyrePagella-Regular-48"/>
      </g>
     </g>
    </g>
    <g id="text_15">
     <!-- # of observations -->
     <g transform="translate(36.2375 508.256875)rotate(-90)scale(0.4 -0.4)">
      <defs>
       <path d="M 0.40625 22.40625 
L 11.09375 22.40625 
L 7.796875 0 
L 13.59375 0 
L 16.90625 22.40625 
L 30.296875 22.40625 
L 27.203125 0 
L 33 0 
L 36.09375 22.40625 
L 47 22.40625 
L 47 28 
L 37 28 
L 39 41.90625 
L 49.5 41.90625 
L 49.5 47.5 
L 39.796875 47.5 
L 42.796875 68.40625 
L 37 68.40625 
L 34 47.5 
L 20.703125 47.5 
L 23.796875 68.40625 
L 18 68.40625 
L 14.90625 47.5 
L 3.09375 47.5 
L 3.09375 41.90625 
L 14.09375 41.90625 
L 12 28 
L 0.40625 28 
z
M 17.796875 28 
L 19.90625 41.90625 
L 33.203125 41.90625 
L 31.203125 28 
z
" id="TeXGyrePagella-Regular-35"/>
       <path d="M 3.203125 21.703125 
C 3.203125 7.59375 12.09375 -2 25 -2 
C 40.40625 -2 51.40625 8.703125 51.40625 23.703125 
C 51.40625 37.203125 41.59375 46.90625 27.90625 46.90625 
C 13.296875 46.90625 3.203125 36.59375 3.203125 21.703125 
z
M 12.5 25.09375 
C 12.5 37.09375 17.296875 43.59375 26.09375 43.59375 
C 35.296875 43.59375 42.09375 33.59375 42.09375 20 
C 42.09375 8.5 37 1.296875 28.90625 1.296875 
C 19.09375 1.296875 12.5 10.90625 12.5 25.09375 
z
" id="TeXGyrePagella-Regular-111"/>
       <path d="M 2.296875 -0.296875 
C 6.5 -0.09375 10.59375 0 14.796875 0 
C 19 0 23.09375 -0.09375 27.296875 -0.296875 
L 27.296875 2.703125 
L 22.703125 3 
C 19.296875 3.203125 19 3.90625 19 10.203125 
L 19 38.5 
L 31.40625 38.5 
L 32.09375 43.796875 
C 27.703125 43.5 23.40625 43.40625 19 43.40625 
L 19 51.90625 
C 19 63.40625 20.296875 66.203125 26 66.203125 
C 28.703125 66.203125 30.5 65.5 32.90625 63.40625 
L 34.09375 64 
L 34.09375 71.703125 
C 32 72.5 30.796875 72.796875 29.5 72.796875 
C 26.296875 72.796875 22.796875 71.09375 20.59375 68.59375 
L 14.796875 62 
C 11.90625 58.703125 10.59375 54.203125 10.59375 47.59375 
L 10.59375 43.40625 
L 3.703125 40.296875 
L 3.703125 38.09375 
L 10.59375 38.5 
L 10.59375 10.203125 
C 10.59375 3.90625 10.296875 3.203125 6.90625 3 
L 2.296875 2.703125 
z
" id="TeXGyrePagella-Regular-102"/>
       <path d="M 2.203125 37.796875 
L 9.796875 38.203125 
L 9.796875 9.40625 
C 9.796875 2 13.09375 -1.203125 20.796875 -1.203125 
C 23.09375 -1.203125 25.5 -0.703125 26.09375 0 
L 30.90625 5.296875 
L 29.59375 7 
C 27.09375 5.59375 25.59375 5.09375 23.703125 5.09375 
C 19.796875 5.09375 18.203125 7.09375 18.203125 12 
L 18.203125 38.203125 
L 31 38.203125 
L 31.90625 43.59375 
L 18.203125 43 
L 18.203125 46.796875 
C 18.203125 51 18.5 54.59375 19.296875 61 
L 18.09375 62.09375 
C 15.703125 60.59375 12.703125 59.296875 9.59375 58.296875 
C 9.90625 55.296875 10 53.40625 10 50.40625 
L 10 43.40625 
L 2.203125 39.90625 
z
" id="TeXGyrePagella-Regular-116"/>
       <path d="M 0.59375 -0.296875 
C 4.703125 -0.09375 8.90625 0 13 0 
C 17.09375 0 21.296875 -0.09375 25.40625 -0.296875 
L 25.40625 2.703125 
L 20.90625 3 
C 17.5 3.203125 17.203125 3.90625 17.203125 10.203125 
L 17.203125 31.40625 
C 17.203125 35.90625 23.796875 40.796875 29.90625 40.796875 
C 36.59375 40.796875 41 35.796875 41 28.09375 
L 41 -0.296875 
C 43.59375 -0.09375 46.296875 0 48.90625 0 
C 51.703125 0 54.40625 -0.09375 57.203125 -0.296875 
L 57.203125 2.703125 
L 53.09375 3 
C 49.703125 3.203125 49.40625 3.796875 49.40625 10.203125 
L 49.40625 29.5 
C 49.40625 41.203125 43.90625 46.90625 32.703125 46.90625 
C 29 46.90625 26.90625 46.203125 24.796875 44.40625 
L 17.203125 37.796875 
L 17.203125 46.5 
L 16.296875 46.90625 
C 11.203125 44.796875 6 43.40625 0.703125 42.796875 
L 0.703125 40 
L 4.40625 40 
C 8.40625 40 8.796875 39.296875 8.796875 32.703125 
L 8.796875 10.203125 
C 8.796875 3.90625 8.5 3.203125 5.09375 3 
L 0.59375 2.703125 
z
" id="TeXGyrePagella-Regular-110"/>
      </defs>
      <use xlink:href="#TeXGyrePagella-Regular-35"/>
      <use x="49.999985" xlink:href="#TeXGyrePagella-Regular-32"/>
      <use x="74.999969" xlink:href="#TeXGyrePagella-Regular-111"/>
      <use x="129.59996" xlink:href="#TeXGyrePagella-Regular-102"/>
      <use x="162.899948" xlink:href="#TeXGyrePagella-Regular-32"/>
      <use x="187.899933" xlink:href="#TeXGyrePagella-Regular-111"/>
      <use x="242.499924" xlink:href="#TeXGyrePagella-Regular-98"/>
      <use x="297.799911" xlink:href="#TeXGyrePagella-Regular-115"/>
      <use x="340.199905" xlink:href="#TeXGyrePagella-Regular-101"/>
      <use x="388.099899" xlink:href="#TeXGyrePagella-Regular-114"/>
      <use x="427.599884" xlink:href="#TeXGyrePagella-Regular-118"/>
      <use x="484.099869" xlink:href="#TeXGyrePagella-Regular-97"/>
      <use x="534.099854" xlink:href="#TeXGyrePagella-Regular-116"/>
      <use x="566.699844" xlink:href="#TeXGyrePagella-Regular-105"/>
      <use x="595.399841" xlink:href="#TeXGyrePagella-Regular-111"/>
      <use x="649.999832" xlink:href="#TeXGyrePagella-Regular-110"/>
      <use x="708.199829" xlink:href="#TeXGyrePagella-Regular-115"/>
     </g>
    </g>
    <g id="text_16">
     <!-- 1e4 -->
     <g transform="translate(110.975 28.978125)scale(0.3 -0.3)">
      <use xlink:href="#TeXGyrePagella-Regular-49"/>
      <use x="49.999985" xlink:href="#TeXGyrePagella-Regular-101"/>
      <use x="97.899979" xlink:href="#TeXGyrePagella-Regular-52"/>
     </g>
    </g>
   </g>
   <g id="patch_3">
    <path clip-path="url(#pab14624c0a)" d="M 149.020455 684.298125 
L 244.134091 684.298125 
L 244.134091 683.932887 
L 149.020455 683.932887 
z
" style="fill:#c93312;opacity:0.5;"/>
   </g>
   <g id="patch_4">
    <path clip-path="url(#pab14624c0a)" d="M 244.134091 684.298125 
L 339.247727 684.298125 
L 339.247727 658.999035 
L 244.134091 658.999035 
z
" style="fill:#c93312;opacity:0.5;"/>
   </g>
   <g id="patch_5">
    <path clip-path="url(#pab14624c0a)" d="M 339.247727 684.298125 
L 434.361364 684.298125 
L 434.361364 390.914699 
L 339.247727 390.914699 
z
" style="fill:#c93312;opacity:0.5;"/>
   </g>
   <g id="patch_6">
    <path clip-path="url(#pab14624c0a)" d="M 434.361364 684.298125 
L 529.475 684.298125 
L 529.475 63.040982 
L 434.361364 63.040982 
z
" style="fill:#c93312;opacity:0.5;"/>
   </g>
   <g id="patch_7">
    <path clip-path="url(#pab14624c0a)" d="M 529.475 684.298125 
L 624.588636 684.298125 
L 624.588636 234.657873 
L 529.475 234.657873 
z
" style="fill:#c93312;opacity:0.5;"/>
   </g>
   <g id="patch_8">
    <path clip-path="url(#pab14624c0a)" d="M 624.588636 684.298125 
L 719.702273 684.298125 
L 719.702273 386.753731 
L 624.588636 386.753731 
z
" style="fill:#c93312;opacity:0.5;"/>
   </g>
   <g id="patch_9">
    <path clip-path="url(#pab14624c0a)" d="M 719.702273 684.298125 
L 814.815909 684.298125 
L 814.815909 567.150931 
L 719.702273 567.150931 
z
" style="fill:#c93312;opacity:0.5;"/>
   </g>
   <g id="patch_10">
    <path clip-path="url(#pab14624c0a)" d="M 814.815909 684.298125 
L 909.929545 684.298125 
L 909.929545 664.21554 
L 814.815909 664.21554 
z
" style="fill:#c93312;opacity:0.5;"/>
   </g>
   <g id="patch_11">
    <path clip-path="url(#pab14624c0a)" d="M 149.020455 684.298125 
L 244.134091 684.298125 
L 244.134091 684.292646 
L 149.020455 684.292646 
z
" style="fill:#899da4;opacity:0.7;"/>
   </g>
   <g id="patch_12">
    <path clip-path="url(#pab14624c0a)" d="M 244.134091 684.298125 
L 339.247727 684.298125 
L 339.247727 683.221587 
L 244.134091 683.221587 
z
" style="fill:#899da4;opacity:0.7;"/>
   </g>
   <g id="patch_13">
    <path clip-path="url(#pab14624c0a)" d="M 339.247727 684.298125 
L 434.361364 684.298125 
L 434.361364 650.961071 
L 339.247727 650.961071 
z
" style="fill:#899da4;opacity:0.7;"/>
   </g>
   <g id="patch_14">
    <path clip-path="url(#pab14624c0a)" d="M 434.361364 684.298125 
L 529.475 684.298125 
L 529.475 481.706354 
L 434.361364 481.706354 
z
" style="fill:#899da4;opacity:0.7;"/>
   </g>
   <g id="patch_15">
    <path clip-path="url(#pab14624c0a)" d="M 529.475 684.298125 
L 624.588636 684.298125 
L 624.588636 384.77597 
L 529.475 384.77597 
z
" style="fill:#899da4;opacity:0.7;"/>
   </g>
   <g id="patch_16">
    <path clip-path="url(#pab14624c0a)" d="M 624.588636 684.298125 
L 719.702273 684.298125 
L 719.702273 442.914478 
L 624.588636 442.914478 
z
" style="fill:#899da4;opacity:0.7;"/>
   </g>
   <g id="patch_17">
    <path clip-path="url(#pab14624c0a)" d="M 719.702273 684.298125 
L 814.815909 684.298125 
L 814.815909 521.448761 
L 719.702273 521.448761 
z
" style="fill:#899da4;opacity:0.7;"/>
   </g>
   <g id="patch_18">
    <path clip-path="url(#pab14624c0a)" d="M 814.815909 684.298125 
L 909.929545 684.298125 
L 909.929545 628.434134 
L 814.815909 628.434134 
z
" style="fill:#899da4;opacity:0.7;"/>
   </g>
   <g id="patch_19">
    <path d="M 110.975 684.298125 
L 110.975 31.978125 
" style="fill:none;stroke:#000000;stroke-linecap:square;stroke-linejoin:miter;stroke-width:0.8;"/>
   </g>
   <g id="patch_20">
    <path d="M 947.975 684.298125 
L 947.975 31.978125 
" style="fill:none;stroke:#000000;stroke-linecap:square;stroke-linejoin:miter;stroke-width:0.8;"/>
   </g>
   <g id="patch_21">
    <path d="M 110.975 684.298125 
L 947.975 684.298125 
" style="fill:none;stroke:#000000;stroke-linecap:square;stroke-linejoin:miter;stroke-width:0.8;"/>
   </g>
   <g id="patch_22">
    <path d="M 110.975 31.978125 
L 947.975 31.978125 
" style="fill:none;stroke:#000000;stroke-linecap:square;stroke-linejoin:miter;stroke-width:0.8;"/>
   </g>
   <g id="legend_1">
    <g id="patch_23">
     <path d="M 731.212188 131.135625 
L 929.775 131.135625 
Q 934.975 131.135625 934.975 125.935625 
L 934.975 50.178125 
Q 934.975 44.978125 929.775 44.978125 
L 731.212188 44.978125 
Q 726.012188 44.978125 726.012188 50.178125 
L 726.012188 125.935625 
Q 726.012188 131.135625 731.212188 131.135625 
z
" style="fill:#ffffff;opacity:0.8;stroke:#cccccc;stroke-linejoin:miter;"/>
    </g>
    <g id="patch_24">
     <path d="M 736.412188 74.2525 
L 788.412188 74.2525 
L 788.412188 56.0525 
L 736.412188 56.0525 
z
" style="fill:#c93312;opacity:0.5;"/>
    </g>
    <g id="text_17">
     <!-- True -->
     <g transform="translate(809.212188 74.2525)scale(0.26 -0.26)">
      <defs>
       <path d="M 1.796875 69.203125 
C 2.296875 63.5 2.5 59.59375 2.5 53.09375 
L 5.59375 53.09375 
L 6 61 
C 6.09375 63.40625 7.203125 64.296875 10 64.296875 
L 25.5 64.296875 
C 25.796875 60.90625 25.90625 58.59375 25.90625 54.296875 
L 25.90625 12 
C 25.90625 4.09375 25.40625 3.296875 20.796875 3 
L 16 2.703125 
L 16 -0.296875 
C 20.90625 -0.09375 25.703125 0 30.59375 0 
C 35.5 0 40.40625 -0.09375 45.296875 -0.296875 
L 45.296875 2.703125 
L 40.5 3 
C 35.90625 3.296875 35.40625 4.09375 35.40625 12 
L 35.40625 54.296875 
C 35.40625 58.796875 35.5 61 35.796875 64.296875 
L 51.296875 64.296875 
C 54.09375 64.296875 55.203125 63.40625 55.296875 61 
L 55.703125 53.09375 
L 58.796875 53.09375 
C 58.796875 59.59375 59 63.5 59.5 69.203125 
L 37.90625 68.90625 
L 22.09375 68.90625 
z
" id="TeXGyrePagella-Regular-84"/>
       <path d="M 1.796875 40 
L 5.5 40 
C 9.5 40 9.90625 39.296875 9.90625 32.703125 
L 9.90625 15.90625 
C 9.90625 8.90625 10.5 5.796875 12.296875 3.296875 
C 14.5 0.296875 18.296875 -1.203125 24 -1.203125 
C 28.5 -1.203125 32.5 0.203125 35.203125 2.703125 
L 41.90625 8.90625 
C 41.90625 6 41.796875 4.40625 41.5 -0.296875 
C 44.296875 -0.09375 47 0 49.796875 0 
C 52.59375 0 55.296875 -0.09375 58.09375 -0.296875 
L 58.09375 2.703125 
L 54 3 
C 50.59375 3.203125 50.296875 3.796875 50.296875 10.203125 
L 50.296875 46.5 
L 49.40625 46.90625 
C 44.296875 44.796875 39.09375 43.40625 33.796875 42.796875 
L 33.796875 40 
L 37.5 40 
C 41.5 40 41.90625 39.296875 41.90625 32.703125 
L 41.90625 16.40625 
C 41.90625 14.203125 40.5 11.40625 38.203125 9.09375 
C 35.40625 6.296875 32.203125 4.90625 28.296875 4.90625 
C 24.796875 4.90625 22 6 20.40625 7.90625 
C 19 9.5 18.296875 12.59375 18.296875 17 
L 18.296875 46.5 
L 17.40625 46.90625 
C 12.296875 44.796875 7.09375 43.40625 1.796875 42.796875 
z
" id="TeXGyrePagella-Regular-117"/>
      </defs>
      <use xlink:href="#TeXGyrePagella-Regular-84"/>
      <use x="61.299988" xlink:href="#TeXGyrePagella-Regular-114"/>
      <use x="100.799973" xlink:href="#TeXGyrePagella-Regular-117"/>
      <use x="161.09996" xlink:href="#TeXGyrePagella-Regular-101"/>
     </g>
    </g>
    <g id="patch_25">
     <path d="M 736.412188 113.43125 
L 788.412188 113.43125 
L 788.412188 95.23125 
L 736.412188 95.23125 
z
" style="fill:#899da4;opacity:0.7;"/>
    </g>
    <g id="text_18">
     <!-- Measured -->
     <g transform="translate(809.212188 113.43125)scale(0.26 -0.26)">
      <defs>
       <path d="M 1.59375 -0.296875 
C 5.5 -0.09375 9.296875 0 13.203125 0 
C 17.203125 0 21.203125 -0.09375 25.203125 -0.296875 
L 25.203125 2.703125 
L 20.796875 3 
C 16.203125 3.296875 15.703125 4.203125 15.703125 12 
L 15.703125 57.796875 
L 43.59375 -1.296875 
L 45.59375 -1.296875 
C 48.09375 4.09375 48.90625 6.90625 51 11.40625 
L 68.796875 49.203125 
L 73.203125 57.796875 
L 73.203125 12 
C 73.203125 4.09375 72.796875 3.40625 68.09375 3 
L 64.703125 2.703125 
L 64.703125 -0.296875 
C 69 -0.09375 73.203125 0 77.5 0 
C 82.5 0 87.59375 -0.09375 92.59375 -0.296875 
L 92.59375 2.703125 
L 87.796875 3 
C 83.203125 3.296875 82.703125 4.09375 82.703125 12 
L 82.703125 56.90625 
C 82.703125 64.703125 83.203125 65.59375 87.796875 65.90625 
L 92 66.203125 
L 92 69.203125 
C 88.90625 69 85.796875 68.90625 82.703125 68.90625 
C 79.5 68.90625 76.40625 69 73.203125 69.203125 
L 47 13.59375 
L 20.59375 69.203125 
C 17.40625 69 14.296875 68.90625 11.09375 68.90625 
C 7.90625 68.90625 4.796875 69 1.59375 69.203125 
L 1.59375 66.203125 
L 6 65.90625 
C 10.59375 65.59375 11.09375 64.703125 11.09375 56.90625 
L 11.09375 12 
C 11.09375 4.203125 10.59375 3.296875 6 3 
L 1.59375 2.703125 
z
" id="TeXGyrePagella-Regular-77"/>
       <path d="M 3.5 21.59375 
C 3.5 13.59375 6.203125 7 11.09375 3 
C 14.5 0.09375 19.203125 -1.203125 25.703125 -1.203125 
C 27.703125 -1.203125 30 -0.796875 30.5 -0.40625 
L 41.59375 8.90625 
L 41.09375 -0.296875 
C 43.703125 -0.09375 46.203125 0 48.796875 0 
C 51.796875 0 54.90625 -0.09375 57.90625 -0.296875 
L 57.90625 2.703125 
L 53.296875 3 
C 49.90625 3.203125 49.59375 3.90625 49.59375 10.203125 
L 49.59375 71.796875 
L 48.703125 72.59375 
C 44.296875 70.90625 41 70.09375 33.09375 68.90625 
L 33.09375 66.09375 
L 38.703125 66.09375 
C 40.5 66.09375 41.203125 65 41.203125 62 
L 41.203125 43.703125 
C 35.59375 46.09375 32.796875 46.90625 29.296875 46.90625 
C 26.59375 46.90625 24.203125 46.296875 21.703125 45 
L 12.90625 40.40625 
C 7.203125 37.40625 3.5 30.09375 3.5 21.59375 
z
M 12.203125 24.90625 
C 12.203125 35.796875 17.59375 42.203125 26.59375 42.203125 
C 30.40625 42.203125 34.40625 40.90625 37.90625 38.5 
C 40 37.09375 41.203125 35.796875 41.203125 35 
L 41.203125 22.09375 
C 41.203125 15.59375 41 14.59375 39.703125 12.296875 
C 36.90625 7.59375 32 4.5 27.296875 4.5 
C 18.5 4.5 12.203125 13 12.203125 24.90625 
z
" id="TeXGyrePagella-Regular-100"/>
      </defs>
      <use xlink:href="#TeXGyrePagella-Regular-77"/>
      <use x="94.599991" xlink:href="#TeXGyrePagella-Regular-101"/>
      <use x="142.499985" xlink:href="#TeXGyrePagella-Regular-97"/>
      <use x="192.499969" xlink:href="#TeXGyrePagella-Regular-115"/>
      <use x="234.899963" xlink:href="#TeXGyrePagella-Regular-117"/>
      <use x="295.199951" xlink:href="#TeXGyrePagella-Regular-114"/>
      <use x="334.699936" xlink:href="#TeXGyrePagella-Regular-101"/>
      <use x="382.59993" xlink:href="#TeXGyrePagella-Regular-100"/>
     </g>
    </g>
   </g>
  </g>
 </g>
 <defs>
  <clipPath id="pab14624c0a">
   <rect height="652.32" width="837" x="110.975" y="31.978125"/>
  </clipPath>
 </defs>
</svg>
